<svg xmlns="http://www.w3.org/2000/svg" viewBox="0 0 320 56" fill="none" role="img" aria-label="Woma Ecoserv">
  <defs>
    <linearGradient id="g1" x1="0" y1="0" x2="48" y2="48" gradientUnits="userSpaceOnUse">
      <stop stop-color="#16a34a"/>
      <stop offset="1" stop-color="#22d3ee"/>
    </linearGradient>
    <linearGradient id="g2" x1="8" y1="8" x2="40" y2="40" gradientUnits="userSpaceOnUse">
      <stop stop-color="#ffffff" stop-opacity="0.95"/>
      <stop offset="1" stop-color="#ffffff" stop-opacity="0.7"/>
    </linearGradient>
  </defs>

  <g transform="translate(4,4)">
    <rect x="0" y="0" width="48" height="48" rx="12" fill="#0b1a2e"/>
    <rect x="0" y="0" width="48" height="48" rx="12" fill="url(#g1)" fill-opacity="0.18"/>
    <rect x="10" y="12" width="28" height="18" rx="2" stroke="url(#g1)" stroke-width="1.5" fill="none"/>
    <line x1="14" y1="18" x2="34" y2="18" stroke="#4ade80" stroke-width="1" opacity="0.7"/>
    <line x1="14" y1="22" x2="34" y2="22" stroke="#4ade80" stroke-width="1" opacity="0.7"/>
    <line x1="14" y1="26" x2="34" y2="26" stroke="#4ade80" stroke-width="1" opacity="0.7"/>
    <path d="M24 8 C18 8 14 12 14 16" stroke="#22d3ee" stroke-width="2" stroke-linecap="round" fill="none"/>
    <path d="M24 8 C30 8 34 12 34 16" stroke="#22d3ee" stroke-width="2" stroke-linecap="round" fill="none"/>
    <circle cx="24" cy="8" r="2.5" fill="#22d3ee"/>
    <path d="M20 34 C22 38 26 38 28 34" stroke="#4ade80" stroke-width="1.5" stroke-linecap="round" fill="none"/>
    <path d="M18 36 Q24 42 30 36" stroke="#4ade80" stroke-width="1.2" stroke-linecap="round" fill="none" opacity="0.6"/>
  </g>

  <text x="64" y="26" font-family="system-ui, -apple-system, 'Segoe UI', sans-serif" font-size="20" font-weight="700" fill="#f1f5f9" letter-spacing="0.04em">WOMA</text>
  <text x="64" y="44" font-family="system-ui, -apple-system, 'Segoe UI', sans-serif" font-size="14" font-weight="600" fill="#4ade80" letter-spacing="0.22em">ECOSERV</text>
</svg>